<?xml version="1.0" encoding="iso-8859-1"?>
<!-- Generator: Adobe Illustrator 19.0.0, SVG Export Plug-In . SVG Version: 6.00 Build 0)  -->
<svg version="1.1" id="Layer_1" xmlns="http://www.w3.org/2000/svg" xmlns:xlink="http://www.w3.org/1999/xlink" x="0px" y="0px"
	 viewBox="0 0 512 512" style="enable-background:new 0 0 512 512;" xml:space="preserve">
<circle style="fill:#273B7A;" cx="256" cy="256" r="256"/>
<path style="fill:#121149;" d="M506.94,306.852L376.832,176.743L189.759,302.245l14.181,14.181L99.556,398.222l109.459,109.459
	C224.247,510.507,239.949,512,256,512C379.973,512,483.356,423.874,506.94,306.852z"/>
<circle style="fill:#FFC61B;" cx="256" cy="251.776" r="142.222"/>
<path style="fill:#EAA22F;" d="M398.222,251.77c0-78.451-63.521-142.058-141.934-142.215v284.429
	C334.701,393.828,398.222,330.221,398.222,251.77z"/>
<g>
	<path style="fill:#59595B;" d="M190.561,365.702l-54.537,16.184l-28.925-97.471c-1.901-6.409,1.751-13.147,8.161-15.05
		l31.327-9.297c6.409-1.901,13.146,1.751,15.05,8.161L190.561,365.702z"/>
	
		<rect x="354.241" y="274.01" transform="matrix(-0.9553 -0.2956 0.2956 -0.9553 650.4529 760.1327)" style="fill:#59595B;" width="56.888" height="113.776"/>
</g>
<path style="fill:#808183;" d="M235.313,381.833l-56.844,2.27l-3.879-97.108c-0.365-9.156,6.759-16.874,15.915-17.239l23.69-0.946
	c9.156-0.365,16.874,6.759,17.239,15.915L235.313,381.833z"/>
<polygon style="fill:#59595B;" points="341.333,296.591 341.332,268.145 312.889,268.147 312.889,239.702 284.444,239.702 
	284.444,268.147 256,268.147 256.002,296.591 284.444,296.591 284.444,381.924 312.889,381.924 312.889,296.591 "/>
<path style="fill:#A6A8AA;" d="M412.444,369.778c0,0-146.246-28.732-312.889,0v28.444h312.889V369.778z"/>
<path style="fill:#808183;" d="M412.444,369.778c0,0-64.281-12.622-156.157-12.764v41.208h156.157V369.778z"/>
<g>
</g>
<g>
</g>
<g>
</g>
<g>
</g>
<g>
</g>
<g>
</g>
<g>
</g>
<g>
</g>
<g>
</g>
<g>
</g>
<g>
</g>
<g>
</g>
<g>
</g>
<g>
</g>
<g>
</g>
</svg>
